<svg id="Layer_1" data-name="Layer 1" xmlns="http://www.w3.org/2000/svg" viewBox="0 0 512 512"><title>cloud-arrow-up-flat</title><g id="cloud-arrow-up"><path d="M391.63,135.5c-7.89,0-17.61,3.18-26.18,6-1.72.57-3.4,1.12-5,1.61-20.88-54.33-67.06-89.18-118.8-89.18A132.94,132.94,0,0,0,109.31,174.21c-2.89-.25-5.53-.39-8.08-.39a101.22,101.22,0,1,0,0,202.43H210.1V346.13H101.24a71.1,71.1,0,1,1,9.41-141.47l26.88,3.55L139,181.15A102.79,102.79,0,0,1,241.67,84c48.81,0,80.09,39.61,92,73.53l7.67,21.78,22.35-5.84c3.49-.9,7.2-2.12,11.12-3.39,4.45-1.45,13.7-4.47,16.78-4.47a90.26,90.26,0,0,1,0,180.51H301.94v30.12h89.69a120.37,120.37,0,0,0,0-240.75Z" fill="#90c8ea"/><path d="M341,313.6l-71.17-99c-12.7-16.47-24.07-.53-24.07-.53l-73.76,98c-6.61,13.57,7.88,13.18,7.88,13.18h45.26v46.45h61.72V325.27h46.54S344.5,325.48,341,313.6Z" fill="#90c8ea"/><polygon points="224.55 391.74 224.55 409.91 224.55 416.44 286.73 416.44 286.73 409.91 286.73 391.79 286.73 388.28 224.55 388.28 224.55 391.74" fill="#90c8ea"/><polygon points="224.55 436.52 224.55 458.11 286.73 458.11 286.73 436.52 286.73 429.99 224.55 429.99 224.55 436.52" fill="#90c8ea"/></g></svg>