<svg id="Layer_1" data-name="Layer 1" xmlns="http://www.w3.org/2000/svg" viewBox="0 0 512 512"><defs><style>.cls-1{fill:#898989;}</style></defs><title>oval-padlock-locked-other</title><path class="cls-1" d="M347,172.26a5.69,5.69,0,0,1-5.69-5.69V96.71a85.33,85.33,0,1,0-170.67,0v69.86a5.69,5.69,0,1,1-11.38,0V96.71a96.71,96.71,0,1,1,193.42,0v69.86A5.69,5.69,0,0,1,347,172.26Z"/><path class="cls-1" d="M256,512C152.48,512,68.27,427.78,68.27,324.27S152.48,136.53,256,136.53s187.73,84.22,187.73,187.73S359.52,512,256,512Zm0-364.09c-97.24,0-176.36,79.11-176.36,176.36S158.76,500.62,256,500.62s176.36-79.11,176.36-176.36S353.24,147.91,256,147.91Z"/><path class="cls-1" d="M256,352.71a51.2,51.2,0,1,1,51.2-51.2A51.26,51.26,0,0,1,256,352.71Zm0-91a39.82,39.82,0,1,0,39.82,39.82A39.87,39.87,0,0,0,256,261.69Z"/><path class="cls-1" d="M256,421a5.69,5.69,0,0,1-5.69-5.69V347a5.69,5.69,0,0,1,11.38,0v68.27A5.69,5.69,0,0,1,256,421Z"/></svg>