<?xml version="1.0" encoding="utf-8"?>
<!-- Generator: Adobe Illustrator 22.1.0, SVG Export Plug-In . SVG Version: 6.00 Build 0)  -->
<svg version="1.1" id="Layer_1" xmlns="http://www.w3.org/2000/svg" xmlns:xlink="http://www.w3.org/1999/xlink" x="0px" y="0px"
	 viewBox="0 0 256 256" style="enable-background:new 0 0 256 256;" xml:space="preserve">
<style type="text/css">
	.st0{fill:#030800;}
	.st1{enable-background:new    ;}
	.st2{font-family:'FredokaOne-Regular';}
	.st3{font-size:107px;}
</style>
<g>
	<path id="a4KK4Sfkr2" class="st0" d="M251.1,206.5c2.7,0,4.9,2.2,4.9,4.9c0,5.4,0,16.9,0,22.3c0,2.7-2.2,4.9-4.9,4.9
		c-50.2,0-196.1,0-246.3,0c-2.7,0-4.8-2.2-4.8-4.9c0-5.4,0-16.9,0-22.3c0-2.7,2.2-4.9,4.8-4.9C55.1,206.5,200.9,206.5,251.1,206.5z"
		/>
</g>
<g>
	<path id="b4VJMhoyW" class="st0" d="M251.1,19c2.7,0,4.9,2.2,4.9,4.9c0,5.4,0,16.9,0,22.3c0,2.7-2.2,4.8-4.9,4.8
		c-50.2,0-196.1,0-246.3,0C2.2,51,0,48.8,0,46.1c0-5.4,0-16.9,0-22.3C0,21.1,2.2,19,4.8,19C55.1,19,200.9,19,251.1,19z"/>
</g>
<g>
	<g class="st1">
		
			<image style="overflow:visible;opacity:0.85;" width="269" height="138" xlink:href="30CB3F3D.png"  transform="matrix(1 0 0 1 0 62)">
		</image>
		<g>
			<text transform="matrix(1 2.777774e-03 -2.777774e-03 1 3.0084 157.1187)" class="st2 st3">VMC</text>
		</g>
	</g>
</g>
</svg>
