<?xml version="1.0" encoding="utf-8"?>
<!-- Generator: Adobe Illustrator 22.1.0, SVG Export Plug-In . SVG Version: 6.00 Build 0)  -->
<svg version="1.1" id="Layer_1" xmlns="http://www.w3.org/2000/svg" xmlns:xlink="http://www.w3.org/1999/xlink" x="0px" y="0px"
	 viewBox="0 0 512 512" style="enable-background:new 0 0 512 512;" xml:space="preserve">
<style type="text/css">
	.st0{fill:#434040;}
</style>
<title>rewind1-glyph</title>
<path class="st0" d="M23.3,59.7C10.2,59.7,0,70.3,0,83.9l0,344.2c0,13.6,10.3,24.2,23.3,24.2c4.4,0,8.8-1.2,12.6-3.5l259.9-172.1
	c11.5-6.1,15.8-20.4,9.6-31.9c-2.2-4.1-5.5-7.4-9.6-9.6L35.9,63.2C32.1,60.9,27.8,59.7,23.3,59.7L23.3,59.7z"/>
<path class="st0" d="M227.1,59.7c-13.1,0-23.3,10.6-23.3,24.2v344.2c0,13.6,10.3,24.2,23.3,24.2c4.4,0,8.8-1.2,12.6-3.5l259.9-172.1
	c11.5-6.1,15.8-20.4,9.6-31.9c-2.2-4.1-5.5-7.4-9.6-9.6L239.7,63.2C235.9,60.9,231.5,59.7,227.1,59.7L227.1,59.7z"/>
</svg>
